# xmcd CD database file
#
# Track frame offsets:
#	150
#	25022
#	59541
#	79291
#	110828
#	129088
#	167374
#	192648
#	221878
#	268607
#	295076
#
# Disc length: 4343 seconds
#
# Revision: 5
# Processed by: cddbd v1.4PL0 Copyright (c) Steve Scherf et al.
# Submitted via: CDex 1.40Beta9
#
DISCID=a210f50b
DTITLE=Led Zeppelin - Remasters CD 2
DYEAR=1990
DGENRE=Rock
TTITLE0=The Song Remains The Same
TTITLE1=The Rain Song
TTITLE2=D'yer Maker
TTITLE3=No Quarter
TTITLE4=Houses Of The Holy
TTITLE5=Kashmir
TTITLE6=Trampled Underfoot
TTITLE7=Nobody's Fault But Mine
TTITLE8=Achilles Last Stand
TTITLE9=All My Love
TTITLE10=In The Evening
EXTD=YEAR: 1990 ID3G: 17
EXTT0=
EXTT1=
EXTT2=
EXTT3=
EXTT4=
EXTT5=
EXTT6=
EXTT7=
EXTT8=
EXTT9=
EXTT10=
PLAYORDER=
